<mxfile host="app.diagrams.net" modified="2021-08-14T13:42:38.102Z" agent="5.0 (Windows NT 10.0; Win64; x64) AppleWebKit/537.36 (KHTML, like Gecko) Chrome/92.0.4515.131 Safari/537.36" etag="Gv2QJIX2ASppNYAhaDV2" version="14.9.6" type="github">
  <diagram id="X3_P9kvmj5O2wAZmpsjR" name="Page-1">
    <mxGraphModel dx="1038" dy="579" grid="0" gridSize="10" guides="1" tooltips="1" connect="1" arrows="1" fold="1" page="1" pageScale="1" pageWidth="850" pageHeight="1100" math="0" shadow="0">
      <root>
        <mxCell id="0" />
        <mxCell id="1" parent="0" />
        <mxCell id="Pc33jDkhrPaaxwca0irE-56" value="" style="endArrow=classic;html=1;exitX=0.5;exitY=1;exitDx=0;exitDy=0;" parent="1" source="Pc33jDkhrPaaxwca0irE-46" edge="1">
          <mxGeometry x="10" y="40" width="50" height="50" as="geometry">
            <mxPoint x="390" y="400" as="sourcePoint" />
            <mxPoint x="355" y="400" as="targetPoint" />
          </mxGeometry>
        </mxCell>
        <mxCell id="Pc33jDkhrPaaxwca0irE-57" value="" style="endArrow=none;html=1;" parent="1" edge="1">
          <mxGeometry x="10" y="40" width="50" height="50" as="geometry">
            <mxPoint x="160" y="400" as="sourcePoint" />
            <mxPoint x="600" y="400" as="targetPoint" />
          </mxGeometry>
        </mxCell>
        <mxCell id="Pc33jDkhrPaaxwca0irE-58" value="" style="endArrow=classic;html=1;" parent="1" edge="1">
          <mxGeometry x="10" y="40" width="50" height="50" as="geometry">
            <mxPoint x="599.5" y="401" as="sourcePoint" />
            <mxPoint x="600" y="431" as="targetPoint" />
            <Array as="points">
              <mxPoint x="600" y="411" />
            </Array>
          </mxGeometry>
        </mxCell>
        <mxCell id="Pc33jDkhrPaaxwca0irE-59" value="" style="endArrow=classic;html=1;" parent="1" edge="1">
          <mxGeometry x="10" y="40" width="50" height="50" as="geometry">
            <mxPoint x="160" y="401" as="sourcePoint" />
            <mxPoint x="160.5" y="431" as="targetPoint" />
            <Array as="points">
              <mxPoint x="160.5" y="411" />
            </Array>
          </mxGeometry>
        </mxCell>
        <mxCell id="Pc33jDkhrPaaxwca0irE-60" value="" style="endArrow=classic;html=1;" parent="1" edge="1">
          <mxGeometry x="10" y="40" width="50" height="50" as="geometry">
            <mxPoint x="319.5" y="401" as="sourcePoint" />
            <mxPoint x="320" y="431" as="targetPoint" />
            <Array as="points">
              <mxPoint x="320" y="411" />
            </Array>
          </mxGeometry>
        </mxCell>
        <mxCell id="Pc33jDkhrPaaxwca0irE-61" value="" style="endArrow=classic;html=1;" parent="1" edge="1">
          <mxGeometry x="10" y="40" width="50" height="50" as="geometry">
            <mxPoint x="455" y="400" as="sourcePoint" />
            <mxPoint x="455.5" y="430" as="targetPoint" />
            <Array as="points">
              <mxPoint x="455.5" y="410" />
            </Array>
          </mxGeometry>
        </mxCell>
        <mxCell id="Pc33jDkhrPaaxwca0irE-62" value="See Schedule" style="ellipse;whiteSpace=wrap;html=1;" parent="1" vertex="1">
          <mxGeometry x="126" y="430" width="70" height="30" as="geometry" />
        </mxCell>
        <mxCell id="Pc33jDkhrPaaxwca0irE-63" value="Can Request for Urgent Trip" style="rounded=1;whiteSpace=wrap;html=1;" parent="1" vertex="1">
          <mxGeometry x="260" y="430" width="120" height="30" as="geometry" />
        </mxCell>
        <mxCell id="Pc33jDkhrPaaxwca0irE-64" value="Give Review about Service" style="ellipse;whiteSpace=wrap;html=1;" parent="1" vertex="1">
          <mxGeometry x="414" y="428" width="88" height="35" as="geometry" />
        </mxCell>
        <mxCell id="Pc33jDkhrPaaxwca0irE-65" value="View Account Info" style="ellipse;whiteSpace=wrap;html=1;" parent="1" vertex="1">
          <mxGeometry x="558.5" y="430" width="83" height="35" as="geometry" />
        </mxCell>
        <mxCell id="Pc33jDkhrPaaxwca0irE-66" value="" style="endArrow=classic;html=1;exitX=0.5;exitY=1;exitDx=0;exitDy=0;" parent="1" source="Pc33jDkhrPaaxwca0irE-62" edge="1">
          <mxGeometry x="10" y="40" width="50" height="50" as="geometry">
            <mxPoint x="390" y="570" as="sourcePoint" />
            <mxPoint x="161" y="490" as="targetPoint" />
          </mxGeometry>
        </mxCell>
        <mxCell id="Pc33jDkhrPaaxwca0irE-67" value="" style="endArrow=none;html=1;" parent="1" edge="1">
          <mxGeometry x="10" y="40" width="50" height="50" as="geometry">
            <mxPoint x="60" y="490" as="sourcePoint" />
            <mxPoint x="240" y="490" as="targetPoint" />
          </mxGeometry>
        </mxCell>
        <mxCell id="Pc33jDkhrPaaxwca0irE-68" value="Date" style="ellipse;whiteSpace=wrap;html=1;" parent="1" vertex="1">
          <mxGeometry x="42" y="520" width="40" height="20" as="geometry" />
        </mxCell>
        <mxCell id="Pc33jDkhrPaaxwca0irE-69" value="" style="endArrow=classic;html=1;" parent="1" edge="1">
          <mxGeometry x="10" y="40" width="50" height="50" as="geometry">
            <mxPoint x="62" y="490" as="sourcePoint" />
            <mxPoint x="62" y="520" as="targetPoint" />
          </mxGeometry>
        </mxCell>
        <mxCell id="Pc33jDkhrPaaxwca0irE-70" value="" style="endArrow=classic;html=1;" parent="1" edge="1">
          <mxGeometry x="10" y="40" width="50" height="50" as="geometry">
            <mxPoint x="240" y="490" as="sourcePoint" />
            <mxPoint x="240" y="520" as="targetPoint" />
          </mxGeometry>
        </mxCell>
        <mxCell id="Pc33jDkhrPaaxwca0irE-71" value="Transport No" style="ellipse;whiteSpace=wrap;html=1;" parent="1" vertex="1">
          <mxGeometry x="210" y="520" width="80" height="20" as="geometry" />
        </mxCell>
        <mxCell id="Pc33jDkhrPaaxwca0irE-72" value="" style="endArrow=classic;html=1;" parent="1" edge="1">
          <mxGeometry x="10" y="40" width="50" height="50" as="geometry">
            <mxPoint x="170" y="490" as="sourcePoint" />
            <mxPoint x="170" y="520" as="targetPoint" />
          </mxGeometry>
        </mxCell>
        <mxCell id="Pc33jDkhrPaaxwca0irE-73" value="" style="endArrow=classic;html=1;entryX=0.5;entryY=0;entryDx=0;entryDy=0;" parent="1" target="Pc33jDkhrPaaxwca0irE-74" edge="1">
          <mxGeometry x="10" y="40" width="50" height="50" as="geometry">
            <mxPoint x="111.5" y="490" as="sourcePoint" />
            <mxPoint x="112" y="510" as="targetPoint" />
          </mxGeometry>
        </mxCell>
        <mxCell id="Pc33jDkhrPaaxwca0irE-74" value="Time" style="ellipse;whiteSpace=wrap;html=1;" parent="1" vertex="1">
          <mxGeometry x="90" y="520" width="40" height="20" as="geometry" />
        </mxCell>
        <mxCell id="Pc33jDkhrPaaxwca0irE-75" value="Location" style="ellipse;whiteSpace=wrap;html=1;" parent="1" vertex="1">
          <mxGeometry x="141" y="520" width="59" height="20" as="geometry" />
        </mxCell>
        <mxCell id="Pc33jDkhrPaaxwca0irE-78" value="" style="endArrow=none;html=1;" parent="1" edge="1">
          <mxGeometry x="10" y="40" width="50" height="50" as="geometry">
            <mxPoint x="60" y="560" as="sourcePoint" />
            <mxPoint x="250" y="560" as="targetPoint" />
          </mxGeometry>
        </mxCell>
        <mxCell id="Pc33jDkhrPaaxwca0irE-79" value="" style="endArrow=classic;html=1;exitX=0.5;exitY=1;exitDx=0;exitDy=0;" parent="1" source="Pc33jDkhrPaaxwca0irE-71" edge="1">
          <mxGeometry x="10" y="40" width="50" height="50" as="geometry">
            <mxPoint x="410" y="640" as="sourcePoint" />
            <mxPoint x="250" y="560" as="targetPoint" />
          </mxGeometry>
        </mxCell>
        <mxCell id="Pc33jDkhrPaaxwca0irE-80" value="" style="endArrow=classic;html=1;exitX=0.5;exitY=1;exitDx=0;exitDy=0;" parent="1" edge="1">
          <mxGeometry x="10" y="40" width="50" height="50" as="geometry">
            <mxPoint x="170" y="540" as="sourcePoint" />
            <mxPoint x="170" y="560" as="targetPoint" />
          </mxGeometry>
        </mxCell>
        <mxCell id="Pc33jDkhrPaaxwca0irE-81" value="" style="endArrow=classic;html=1;exitX=0.5;exitY=1;exitDx=0;exitDy=0;" parent="1" edge="1">
          <mxGeometry x="10" y="40" width="50" height="50" as="geometry">
            <mxPoint x="111.5" y="540" as="sourcePoint" />
            <mxPoint x="111.5" y="560" as="targetPoint" />
          </mxGeometry>
        </mxCell>
        <mxCell id="Pc33jDkhrPaaxwca0irE-82" value="" style="endArrow=classic;html=1;exitX=0.5;exitY=1;exitDx=0;exitDy=0;" parent="1" edge="1">
          <mxGeometry x="10" y="40" width="50" height="50" as="geometry">
            <mxPoint x="61.5" y="540" as="sourcePoint" />
            <mxPoint x="61.5" y="560" as="targetPoint" />
          </mxGeometry>
        </mxCell>
        <mxCell id="Pc33jDkhrPaaxwca0irE-84" value="Driver Name" style="ellipse;whiteSpace=wrap;html=1;" parent="1" vertex="1">
          <mxGeometry x="50" y="600" width="58" height="30" as="geometry" />
        </mxCell>
        <mxCell id="Pc33jDkhrPaaxwca0irE-85" value="" style="endArrow=classic;html=1;exitX=1;exitY=0.5;exitDx=0;exitDy=0;" parent="1" source="Pc33jDkhrPaaxwca0irE-84" edge="1">
          <mxGeometry x="10" y="40" width="50" height="50" as="geometry">
            <mxPoint x="390" y="650" as="sourcePoint" />
            <mxPoint x="108" y="650" as="targetPoint" />
            <Array as="points">
              <mxPoint x="130" y="615" />
              <mxPoint x="130" y="650" />
            </Array>
          </mxGeometry>
        </mxCell>
        <mxCell id="Pc33jDkhrPaaxwca0irE-87" value="Transport No" style="ellipse;whiteSpace=wrap;html=1;" parent="1" vertex="1">
          <mxGeometry x="50" y="640" width="58" height="30" as="geometry" />
        </mxCell>
        <mxCell id="Pc33jDkhrPaaxwca0irE-88" value="" style="endArrow=classic;html=1;" parent="1" edge="1">
          <mxGeometry x="10" y="40" width="50" height="50" as="geometry">
            <mxPoint x="130" y="630" as="sourcePoint" />
            <mxPoint x="150" y="630" as="targetPoint" />
          </mxGeometry>
        </mxCell>
        <mxCell id="Pc33jDkhrPaaxwca0irE-89" value="Request Accepted" style="ellipse;whiteSpace=wrap;html=1;" parent="1" vertex="1">
          <mxGeometry x="150" y="610" width="60" height="40" as="geometry" />
        </mxCell>
        <mxCell id="Pc33jDkhrPaaxwca0irE-90" value="" style="endArrow=classic;html=1;exitX=1;exitY=0.5;exitDx=0;exitDy=0;" parent="1" source="Pc33jDkhrPaaxwca0irE-89" edge="1">
          <mxGeometry x="10" y="40" width="50" height="50" as="geometry">
            <mxPoint x="390" y="650" as="sourcePoint" />
            <mxPoint x="200" y="680" as="targetPoint" />
            <Array as="points">
              <mxPoint x="240" y="630" />
              <mxPoint x="240" y="680" />
            </Array>
          </mxGeometry>
        </mxCell>
        <mxCell id="Pc33jDkhrPaaxwca0irE-91" value="Request Not Accepted Sorry for Ignore" style="ellipse;whiteSpace=wrap;html=1;" parent="1" vertex="1">
          <mxGeometry x="90" y="660" width="110" height="40" as="geometry" />
        </mxCell>
        <mxCell id="Pc33jDkhrPaaxwca0irE-92" value="" style="endArrow=classic;html=1;entryX=0.388;entryY=-0.025;entryDx=0;entryDy=0;entryPerimeter=0;" parent="1" target="Pc33jDkhrPaaxwca0irE-93" edge="1">
          <mxGeometry x="10" y="40" width="50" height="50" as="geometry">
            <mxPoint x="240" y="670" as="sourcePoint" />
            <mxPoint x="300" y="670" as="targetPoint" />
            <Array as="points">
              <mxPoint x="341" y="670" />
            </Array>
          </mxGeometry>
        </mxCell>
        <mxCell id="Pc33jDkhrPaaxwca0irE-93" value="Get Massage" style="ellipse;whiteSpace=wrap;html=1;" parent="1" vertex="1">
          <mxGeometry x="310" y="690" width="80" height="40" as="geometry" />
        </mxCell>
        <mxCell id="Pc33jDkhrPaaxwca0irE-94" value="" style="endArrow=classic;html=1;exitX=0.5;exitY=1;exitDx=0;exitDy=0;" parent="1" source="Pc33jDkhrPaaxwca0irE-63" edge="1">
          <mxGeometry x="10" y="40" width="50" height="50" as="geometry">
            <mxPoint x="390" y="630" as="sourcePoint" />
            <mxPoint x="320" y="480" as="targetPoint" />
          </mxGeometry>
        </mxCell>
        <mxCell id="Pc33jDkhrPaaxwca0irE-95" value="Can Request for Urgent Trip" style="rounded=1;whiteSpace=wrap;html=1;" parent="1" vertex="1">
          <mxGeometry x="260" y="480" width="160" height="30" as="geometry" />
        </mxCell>
        <mxCell id="Pc33jDkhrPaaxwca0irE-96" value="" style="endArrow=classic;html=1;exitX=0.4;exitY=1.067;exitDx=0;exitDy=0;exitPerimeter=0;" parent="1" source="Pc33jDkhrPaaxwca0irE-95" edge="1">
          <mxGeometry x="10" y="40" width="50" height="50" as="geometry">
            <mxPoint x="390" y="630" as="sourcePoint" />
            <mxPoint x="324" y="540" as="targetPoint" />
          </mxGeometry>
        </mxCell>
        <mxCell id="Pc33jDkhrPaaxwca0irE-97" value="Click at need Urgent Trip" style="rounded=1;whiteSpace=wrap;html=1;" parent="1" vertex="1">
          <mxGeometry x="270" y="540" width="150" height="30" as="geometry" />
        </mxCell>
        <mxCell id="Pc33jDkhrPaaxwca0irE-98" value="" style="endArrow=classic;html=1;exitX=0.153;exitY=1.067;exitDx=0;exitDy=0;exitPerimeter=0;" parent="1" source="Pc33jDkhrPaaxwca0irE-97" edge="1">
          <mxGeometry x="10" y="40" width="50" height="50" as="geometry">
            <mxPoint x="390" y="630" as="sourcePoint" />
            <mxPoint x="293" y="590" as="targetPoint" />
          </mxGeometry>
        </mxCell>
        <mxCell id="Pc33jDkhrPaaxwca0irE-99" value="" style="endArrow=classic;html=1;exitX=0.153;exitY=1.067;exitDx=0;exitDy=0;exitPerimeter=0;" parent="1" edge="1">
          <mxGeometry x="10" y="40" width="50" height="50" as="geometry">
            <mxPoint x="399.00000000000006" y="570" as="sourcePoint" />
            <mxPoint x="399.05" y="587.99" as="targetPoint" />
          </mxGeometry>
        </mxCell>
        <mxCell id="Pc33jDkhrPaaxwca0irE-100" value="Enter Trip" style="ellipse;whiteSpace=wrap;html=1;" parent="1" vertex="1">
          <mxGeometry x="260" y="590" width="70" height="30" as="geometry" />
        </mxCell>
        <mxCell id="Pc33jDkhrPaaxwca0irE-101" value="Enter Location" style="ellipse;whiteSpace=wrap;html=1;" parent="1" vertex="1">
          <mxGeometry x="360" y="590" width="70" height="30" as="geometry" />
        </mxCell>
        <mxCell id="Pc33jDkhrPaaxwca0irE-102" value="" style="endArrow=none;html=1;" parent="1" edge="1">
          <mxGeometry x="10" y="40" width="50" height="50" as="geometry">
            <mxPoint x="290" y="640" as="sourcePoint" />
            <mxPoint x="390" y="640" as="targetPoint" />
          </mxGeometry>
        </mxCell>
        <mxCell id="Pc33jDkhrPaaxwca0irE-103" value="" style="endArrow=classic;html=1;" parent="1" edge="1">
          <mxGeometry x="10" y="40" width="50" height="50" as="geometry">
            <mxPoint x="390" y="620" as="sourcePoint" />
            <mxPoint x="390" y="640" as="targetPoint" />
          </mxGeometry>
        </mxCell>
        <mxCell id="Pc33jDkhrPaaxwca0irE-104" value="" style="endArrow=classic;html=1;" parent="1" edge="1">
          <mxGeometry x="10" y="40" width="50" height="50" as="geometry">
            <mxPoint x="294.5" y="620" as="sourcePoint" />
            <mxPoint x="294.5" y="640" as="targetPoint" />
          </mxGeometry>
        </mxCell>
        <mxCell id="Pc33jDkhrPaaxwca0irE-105" value="" style="endArrow=classic;html=1;entryX=0.775;entryY=-0.05;entryDx=0;entryDy=0;entryPerimeter=0;" parent="1" edge="1">
          <mxGeometry x="10" y="40" width="50" height="50" as="geometry">
            <mxPoint x="354" y="640" as="sourcePoint" />
            <mxPoint x="354" y="688" as="targetPoint" />
          </mxGeometry>
        </mxCell>
        <mxCell id="Pc33jDkhrPaaxwca0irE-106" value="" style="endArrow=classic;html=1;" parent="1" edge="1">
          <mxGeometry x="10" y="40" width="50" height="50" as="geometry">
            <mxPoint x="460" y="464" as="sourcePoint" />
            <mxPoint x="473.51673232615735" y="495.53904209436723" as="targetPoint" />
          </mxGeometry>
        </mxCell>
        <mxCell id="Pc33jDkhrPaaxwca0irE-107" value="Click at Live Preview" style="ellipse;whiteSpace=wrap;html=1;" parent="1" vertex="1">
          <mxGeometry x="430" y="500" width="120" height="40" as="geometry" />
        </mxCell>
        <mxCell id="Pc33jDkhrPaaxwca0irE-108" value="" style="endArrow=classic;html=1;exitX=0.5;exitY=1;exitDx=0;exitDy=0;" parent="1" source="Pc33jDkhrPaaxwca0irE-65" target="Pc33jDkhrPaaxwca0irE-109" edge="1">
          <mxGeometry x="10" y="40" width="50" height="50" as="geometry">
            <mxPoint x="390" y="620" as="sourcePoint" />
            <mxPoint x="600" y="560" as="targetPoint" />
          </mxGeometry>
        </mxCell>
        <mxCell id="Pc33jDkhrPaaxwca0irE-109" value="Update Account Info" style="ellipse;whiteSpace=wrap;html=1;" parent="1" vertex="1">
          <mxGeometry x="540" y="520" width="120" height="40" as="geometry" />
        </mxCell>
        <mxCell id="Pc33jDkhrPaaxwca0irE-110" value="" style="endArrow=none;html=1;entryX=0.5;entryY=1;entryDx=0;entryDy=0;" parent="1" target="Pc33jDkhrPaaxwca0irE-109" edge="1">
          <mxGeometry x="10" y="40" width="50" height="50" as="geometry">
            <mxPoint x="28" y="760" as="sourcePoint" />
            <mxPoint x="600" y="760" as="targetPoint" />
            <Array as="points">
              <mxPoint x="600" y="760" />
            </Array>
          </mxGeometry>
        </mxCell>
        <mxCell id="Pc33jDkhrPaaxwca0irE-112" value="" style="endArrow=none;html=1;" parent="1" edge="1">
          <mxGeometry x="10" y="40" width="50" height="50" as="geometry">
            <mxPoint x="26" y="760" as="sourcePoint" />
            <mxPoint x="26" y="583" as="targetPoint" />
          </mxGeometry>
        </mxCell>
        <mxCell id="Pc33jDkhrPaaxwca0irE-113" value="" style="endArrow=classic;html=1;" parent="1" edge="1">
          <mxGeometry x="10" y="40" width="50" height="50" as="geometry">
            <mxPoint x="300" y="760" as="sourcePoint" />
            <mxPoint x="300" y="790" as="targetPoint" />
          </mxGeometry>
        </mxCell>
        <mxCell id="Pc33jDkhrPaaxwca0irE-114" value="Logout" style="ellipse;whiteSpace=wrap;html=1;" parent="1" vertex="1">
          <mxGeometry x="260" y="790" width="70" height="40" as="geometry" />
        </mxCell>
        <mxCell id="bTwqP_sagjMZxLhYl7U9-1" value="" style="endArrow=none;html=1;" parent="1" edge="1">
          <mxGeometry x="10" y="40" width="50" height="50" as="geometry">
            <mxPoint x="27" y="584" as="sourcePoint" />
            <mxPoint x="151" y="561" as="targetPoint" />
            <Array as="points">
              <mxPoint x="151" y="584" />
            </Array>
          </mxGeometry>
        </mxCell>
        <mxCell id="bTwqP_sagjMZxLhYl7U9-2" value="" style="endArrow=classic;html=1;exitX=0.5;exitY=1;exitDx=0;exitDy=0;" parent="1" source="Pc33jDkhrPaaxwca0irE-91" edge="1">
          <mxGeometry x="10" y="40" width="50" height="50" as="geometry">
            <mxPoint x="433" y="657" as="sourcePoint" />
            <mxPoint x="145" y="760" as="targetPoint" />
          </mxGeometry>
        </mxCell>
        <mxCell id="bTwqP_sagjMZxLhYl7U9-3" value="" style="endArrow=none;html=1;exitX=0;exitY=0.5;exitDx=0;exitDy=0;entryX=0;entryY=0.5;entryDx=0;entryDy=0;" parent="1" source="Pc33jDkhrPaaxwca0irE-84" target="Pc33jDkhrPaaxwca0irE-87" edge="1">
          <mxGeometry x="10" y="40" width="50" height="50" as="geometry">
            <mxPoint x="433" y="657" as="sourcePoint" />
            <mxPoint x="483" y="607" as="targetPoint" />
          </mxGeometry>
        </mxCell>
        <mxCell id="bTwqP_sagjMZxLhYl7U9-4" value="" style="endArrow=classic;html=1;" parent="1" edge="1">
          <mxGeometry x="10" y="40" width="50" height="50" as="geometry">
            <mxPoint x="48" y="633" as="sourcePoint" />
            <mxPoint x="34" y="763" as="targetPoint" />
            <Array as="points">
              <mxPoint x="34" y="633" />
            </Array>
          </mxGeometry>
        </mxCell>
        <mxCell id="bTwqP_sagjMZxLhYl7U9-6" value="" style="endArrow=classic;html=1;exitX=0.5;exitY=1;exitDx=0;exitDy=0;" parent="1" source="Pc33jDkhrPaaxwca0irE-107" edge="1">
          <mxGeometry x="10" y="40" width="50" height="50" as="geometry">
            <mxPoint x="155" y="404" as="sourcePoint" />
            <mxPoint x="504" y="759" as="targetPoint" />
          </mxGeometry>
        </mxCell>
        <mxCell id="els3Yt9vatL_VdU9OJER-5" value="" style="group" vertex="1" connectable="0" parent="1">
          <mxGeometry x="10" y="9" width="620" height="381" as="geometry" />
        </mxCell>
        <mxCell id="Pc33jDkhrPaaxwca0irE-18" value="" style="endArrow=classic;html=1;" parent="els3Yt9vatL_VdU9OJER-5" edge="1">
          <mxGeometry y="31" width="50" height="50" as="geometry">
            <mxPoint x="29.5" y="211" as="sourcePoint" />
            <mxPoint x="30" y="241" as="targetPoint" />
            <Array as="points">
              <mxPoint x="30" y="221" />
            </Array>
          </mxGeometry>
        </mxCell>
        <mxCell id="Pc33jDkhrPaaxwca0irE-19" value="" style="endArrow=classic;html=1;" parent="els3Yt9vatL_VdU9OJER-5" edge="1">
          <mxGeometry y="31" width="50" height="50" as="geometry">
            <mxPoint x="101.5" y="211" as="sourcePoint" />
            <mxPoint x="102" y="241" as="targetPoint" />
            <Array as="points">
              <mxPoint x="102" y="221" />
            </Array>
          </mxGeometry>
        </mxCell>
        <mxCell id="Pc33jDkhrPaaxwca0irE-20" value="" style="endArrow=classic;html=1;" parent="els3Yt9vatL_VdU9OJER-5" edge="1">
          <mxGeometry y="31" width="50" height="50" as="geometry">
            <mxPoint x="169.5" y="211" as="sourcePoint" />
            <mxPoint x="170" y="241" as="targetPoint" />
            <Array as="points">
              <mxPoint x="170" y="221" />
            </Array>
          </mxGeometry>
        </mxCell>
        <mxCell id="Pc33jDkhrPaaxwca0irE-21" value="" style="endArrow=classic;html=1;" parent="els3Yt9vatL_VdU9OJER-5" edge="1">
          <mxGeometry y="31" width="50" height="50" as="geometry">
            <mxPoint x="238.5" y="211" as="sourcePoint" />
            <mxPoint x="239" y="241" as="targetPoint" />
            <Array as="points">
              <mxPoint x="239" y="221" />
            </Array>
          </mxGeometry>
        </mxCell>
        <mxCell id="Pc33jDkhrPaaxwca0irE-22" value="" style="endArrow=classic;html=1;" parent="els3Yt9vatL_VdU9OJER-5" edge="1">
          <mxGeometry y="31" width="50" height="50" as="geometry">
            <mxPoint x="309.5" y="211" as="sourcePoint" />
            <mxPoint x="310" y="241" as="targetPoint" />
            <Array as="points">
              <mxPoint x="310" y="221" />
            </Array>
          </mxGeometry>
        </mxCell>
        <mxCell id="Pc33jDkhrPaaxwca0irE-23" value="" style="endArrow=none;html=1;" parent="els3Yt9vatL_VdU9OJER-5" edge="1">
          <mxGeometry y="31" width="50" height="50" as="geometry">
            <mxPoint x="30" y="241" as="sourcePoint" />
            <mxPoint x="310" y="241" as="targetPoint" />
          </mxGeometry>
        </mxCell>
        <mxCell id="Pc33jDkhrPaaxwca0irE-24" value="" style="endArrow=classic;html=1;" parent="els3Yt9vatL_VdU9OJER-5" edge="1">
          <mxGeometry y="31" width="50" height="50" as="geometry">
            <mxPoint x="169.5" y="241" as="sourcePoint" />
            <mxPoint x="170" y="271" as="targetPoint" />
            <Array as="points">
              <mxPoint x="170" y="251" />
            </Array>
          </mxGeometry>
        </mxCell>
        <mxCell id="Pc33jDkhrPaaxwca0irE-25" value="Get Massage Registration Done" style="ellipse;whiteSpace=wrap;html=1;" parent="els3Yt9vatL_VdU9OJER-5" vertex="1">
          <mxGeometry x="120" y="341" width="100" height="40" as="geometry" />
        </mxCell>
        <mxCell id="Pc33jDkhrPaaxwca0irE-26" value="" style="endArrow=classic;html=1;" parent="els3Yt9vatL_VdU9OJER-5" edge="1">
          <mxGeometry y="31" width="50" height="50" as="geometry">
            <mxPoint x="169.5" y="311" as="sourcePoint" />
            <mxPoint x="170" y="341" as="targetPoint" />
            <Array as="points">
              <mxPoint x="170" y="321" />
            </Array>
          </mxGeometry>
        </mxCell>
        <mxCell id="Pc33jDkhrPaaxwca0irE-27" value="Enter Submit" style="ellipse;whiteSpace=wrap;html=1;" parent="els3Yt9vatL_VdU9OJER-5" vertex="1">
          <mxGeometry x="130" y="271" width="80" height="40" as="geometry" />
        </mxCell>
        <mxCell id="Pc33jDkhrPaaxwca0irE-28" value="" style="endArrow=classic;html=1;exitX=1;exitY=0.5;exitDx=0;exitDy=0;" parent="els3Yt9vatL_VdU9OJER-5" source="Pc33jDkhrPaaxwca0irE-25" edge="1">
          <mxGeometry y="31" width="50" height="50" as="geometry">
            <mxPoint x="230" y="311" as="sourcePoint" />
            <mxPoint x="410" y="101" as="targetPoint" />
            <Array as="points">
              <mxPoint x="240" y="361" />
              <mxPoint x="240" y="301" />
              <mxPoint x="350" y="301" />
              <mxPoint x="350" y="221" />
              <mxPoint x="350" y="101" />
            </Array>
          </mxGeometry>
        </mxCell>
        <mxCell id="Pc33jDkhrPaaxwca0irE-29" value="Login" style="ellipse;whiteSpace=wrap;html=1;" parent="els3Yt9vatL_VdU9OJER-5" vertex="1">
          <mxGeometry x="415" y="81" width="60" height="40" as="geometry" />
        </mxCell>
        <mxCell id="Pc33jDkhrPaaxwca0irE-30" value="" style="endArrow=classic;html=1;" parent="els3Yt9vatL_VdU9OJER-5" edge="1">
          <mxGeometry y="31" width="50" height="50" as="geometry">
            <mxPoint x="444.5" y="121" as="sourcePoint" />
            <mxPoint x="445" y="151" as="targetPoint" />
            <Array as="points">
              <mxPoint x="445" y="131" />
            </Array>
          </mxGeometry>
        </mxCell>
        <mxCell id="Pc33jDkhrPaaxwca0irE-31" value="Enter Login / Registration" style="rounded=1;whiteSpace=wrap;html=1;" parent="els3Yt9vatL_VdU9OJER-5" vertex="1">
          <mxGeometry x="375" y="151" width="140" height="30" as="geometry" />
        </mxCell>
        <mxCell id="Pc33jDkhrPaaxwca0irE-32" value="" style="endArrow=classic;html=1;" parent="els3Yt9vatL_VdU9OJER-5" edge="1">
          <mxGeometry y="31" width="50" height="50" as="geometry">
            <mxPoint x="444.5" y="181" as="sourcePoint" />
            <mxPoint x="445" y="211" as="targetPoint" />
            <Array as="points">
              <mxPoint x="445" y="191" />
            </Array>
          </mxGeometry>
        </mxCell>
        <mxCell id="Pc33jDkhrPaaxwca0irE-33" value="" style="endArrow=none;html=1;" parent="els3Yt9vatL_VdU9OJER-5" edge="1">
          <mxGeometry y="31" width="50" height="50" as="geometry">
            <mxPoint x="390" y="211" as="sourcePoint" />
            <mxPoint x="510" y="211" as="targetPoint" />
          </mxGeometry>
        </mxCell>
        <mxCell id="Pc33jDkhrPaaxwca0irE-34" value="Enter Email" style="ellipse;whiteSpace=wrap;html=1;" parent="els3Yt9vatL_VdU9OJER-5" vertex="1">
          <mxGeometry x="360" y="241" width="60" height="40" as="geometry" />
        </mxCell>
        <mxCell id="Pc33jDkhrPaaxwca0irE-35" value="Enter Password" style="ellipse;whiteSpace=wrap;html=1;" parent="els3Yt9vatL_VdU9OJER-5" vertex="1">
          <mxGeometry x="480" y="241" width="60" height="40" as="geometry" />
        </mxCell>
        <mxCell id="Pc33jDkhrPaaxwca0irE-37" value="" style="endArrow=classic;html=1;" parent="els3Yt9vatL_VdU9OJER-5" edge="1">
          <mxGeometry y="31" width="50" height="50" as="geometry">
            <mxPoint x="390" y="211" as="sourcePoint" />
            <mxPoint x="390.5" y="241" as="targetPoint" />
            <Array as="points">
              <mxPoint x="390.5" y="221" />
            </Array>
          </mxGeometry>
        </mxCell>
        <mxCell id="Pc33jDkhrPaaxwca0irE-38" value="" style="endArrow=classic;html=1;" parent="els3Yt9vatL_VdU9OJER-5" edge="1">
          <mxGeometry y="31" width="50" height="50" as="geometry">
            <mxPoint x="510" y="211" as="sourcePoint" />
            <mxPoint x="510.5" y="241" as="targetPoint" />
            <Array as="points">
              <mxPoint x="510.5" y="221" />
            </Array>
          </mxGeometry>
        </mxCell>
        <mxCell id="Pc33jDkhrPaaxwca0irE-40" value="" style="endArrow=none;html=1;" parent="els3Yt9vatL_VdU9OJER-5" edge="1">
          <mxGeometry y="31" width="50" height="50" as="geometry">
            <mxPoint x="390" y="291" as="sourcePoint" />
            <mxPoint x="510" y="291" as="targetPoint" />
          </mxGeometry>
        </mxCell>
        <mxCell id="Pc33jDkhrPaaxwca0irE-41" value="" style="endArrow=none;html=1;entryX=0.5;entryY=1;entryDx=0;entryDy=0;" parent="els3Yt9vatL_VdU9OJER-5" target="Pc33jDkhrPaaxwca0irE-34" edge="1">
          <mxGeometry y="31" width="50" height="50" as="geometry">
            <mxPoint x="390" y="291" as="sourcePoint" />
            <mxPoint x="430" y="241" as="targetPoint" />
          </mxGeometry>
        </mxCell>
        <mxCell id="Pc33jDkhrPaaxwca0irE-42" value="" style="endArrow=none;html=1;entryX=0.5;entryY=1;entryDx=0;entryDy=0;" parent="els3Yt9vatL_VdU9OJER-5" target="Pc33jDkhrPaaxwca0irE-35" edge="1">
          <mxGeometry y="31" width="50" height="50" as="geometry">
            <mxPoint x="510" y="291" as="sourcePoint" />
            <mxPoint x="430" y="241" as="targetPoint" />
          </mxGeometry>
        </mxCell>
        <mxCell id="Pc33jDkhrPaaxwca0irE-43" value="" style="endArrow=classic;html=1;" parent="els3Yt9vatL_VdU9OJER-5" edge="1">
          <mxGeometry y="31" width="50" height="50" as="geometry">
            <mxPoint x="444.5" y="291" as="sourcePoint" />
            <mxPoint x="445" y="321" as="targetPoint" />
            <Array as="points">
              <mxPoint x="445" y="301" />
            </Array>
          </mxGeometry>
        </mxCell>
        <mxCell id="Pc33jDkhrPaaxwca0irE-44" value="Invalid" style="rhombus;whiteSpace=wrap;html=1;" parent="els3Yt9vatL_VdU9OJER-5" vertex="1">
          <mxGeometry x="423" y="321" width="45" height="40" as="geometry" />
        </mxCell>
        <mxCell id="Pc33jDkhrPaaxwca0irE-45" value="" style="endArrow=classic;html=1;exitX=0;exitY=0.5;exitDx=0;exitDy=0;" parent="els3Yt9vatL_VdU9OJER-5" source="Pc33jDkhrPaaxwca0irE-44" edge="1">
          <mxGeometry y="31" width="50" height="50" as="geometry">
            <mxPoint x="380" y="391" as="sourcePoint" />
            <mxPoint x="390" y="341" as="targetPoint" />
          </mxGeometry>
        </mxCell>
        <mxCell id="Pc33jDkhrPaaxwca0irE-46" value="Go to Dashboard" style="ellipse;whiteSpace=wrap;html=1;" parent="els3Yt9vatL_VdU9OJER-5" vertex="1">
          <mxGeometry x="300" y="321" width="89" height="40" as="geometry" />
        </mxCell>
        <mxCell id="Pc33jDkhrPaaxwca0irE-47" value="Yes" style="text;html=1;align=center;verticalAlign=middle;resizable=0;points=[];autosize=1;strokeColor=none;" parent="els3Yt9vatL_VdU9OJER-5" vertex="1">
          <mxGeometry x="390" y="321" width="40" height="20" as="geometry" />
        </mxCell>
        <mxCell id="Pc33jDkhrPaaxwca0irE-48" value="" style="endArrow=classic;html=1;entryX=0;entryY=0.5;entryDx=0;entryDy=0;" parent="els3Yt9vatL_VdU9OJER-5" target="Pc33jDkhrPaaxwca0irE-50" edge="1">
          <mxGeometry y="31" width="50" height="50" as="geometry">
            <mxPoint x="467" y="341" as="sourcePoint" />
            <mxPoint x="510" y="341" as="targetPoint" />
          </mxGeometry>
        </mxCell>
        <mxCell id="Pc33jDkhrPaaxwca0irE-49" value="No" style="text;html=1;align=center;verticalAlign=middle;resizable=0;points=[];autosize=1;strokeColor=none;" parent="els3Yt9vatL_VdU9OJER-5" vertex="1">
          <mxGeometry x="468" y="321" width="30" height="20" as="geometry" />
        </mxCell>
        <mxCell id="Pc33jDkhrPaaxwca0irE-50" value="Get Login Fail" style="ellipse;whiteSpace=wrap;html=1;" parent="els3Yt9vatL_VdU9OJER-5" vertex="1">
          <mxGeometry x="560" y="321" width="60" height="40" as="geometry" />
        </mxCell>
        <mxCell id="Pc33jDkhrPaaxwca0irE-51" value="" style="endArrow=classic;html=1;entryX=1;entryY=0.5;entryDx=0;entryDy=0;" parent="els3Yt9vatL_VdU9OJER-5" target="Pc33jDkhrPaaxwca0irE-31" edge="1">
          <mxGeometry y="31" width="50" height="50" as="geometry">
            <mxPoint x="590" y="251" as="sourcePoint" />
            <mxPoint x="430" y="341" as="targetPoint" />
            <Array as="points">
              <mxPoint x="590" y="166" />
            </Array>
          </mxGeometry>
        </mxCell>
        <mxCell id="Pc33jDkhrPaaxwca0irE-52" value="Registration Again" style="ellipse;whiteSpace=wrap;html=1;" parent="els3Yt9vatL_VdU9OJER-5" vertex="1">
          <mxGeometry x="560" y="251" width="60" height="40" as="geometry" />
        </mxCell>
        <mxCell id="Pc33jDkhrPaaxwca0irE-53" value="" style="endArrow=classic;html=1;exitX=0.5;exitY=0;exitDx=0;exitDy=0;entryX=0.5;entryY=1;entryDx=0;entryDy=0;" parent="els3Yt9vatL_VdU9OJER-5" source="Pc33jDkhrPaaxwca0irE-50" target="Pc33jDkhrPaaxwca0irE-52" edge="1">
          <mxGeometry y="31" width="50" height="50" as="geometry">
            <mxPoint x="380" y="391" as="sourcePoint" />
            <mxPoint x="430" y="341" as="targetPoint" />
          </mxGeometry>
        </mxCell>
        <mxCell id="els3Yt9vatL_VdU9OJER-4" value="" style="group" vertex="1" connectable="0" parent="els3Yt9vatL_VdU9OJER-5">
          <mxGeometry width="340" height="246" as="geometry" />
        </mxCell>
        <mxCell id="Pc33jDkhrPaaxwca0irE-1" value="Registration" style="rounded=1;whiteSpace=wrap;html=1;" parent="els3Yt9vatL_VdU9OJER-4" vertex="1">
          <mxGeometry x="110" y="36.14218009478673" width="120" height="34.976303317535546" as="geometry" />
        </mxCell>
        <mxCell id="Pc33jDkhrPaaxwca0irE-2" value="Enter Registration Info" style="rounded=1;whiteSpace=wrap;html=1;" parent="els3Yt9vatL_VdU9OJER-4" vertex="1">
          <mxGeometry x="110" y="106.09478672985783" width="120" height="34.976303317535546" as="geometry" />
        </mxCell>
        <mxCell id="Pc33jDkhrPaaxwca0irE-3" value="" style="endArrow=classic;html=1;" parent="els3Yt9vatL_VdU9OJER-4" edge="1">
          <mxGeometry y="36.14218009478673" width="50" height="58.29383886255924" as="geometry">
            <mxPoint x="169.5" y="71.11848341232228" as="sourcePoint" />
            <mxPoint x="170" y="106.09478672985783" as="targetPoint" />
            <Array as="points">
              <mxPoint x="170" y="82.77725118483413" />
            </Array>
          </mxGeometry>
        </mxCell>
        <mxCell id="Pc33jDkhrPaaxwca0irE-4" value="" style="endArrow=classic;html=1;" parent="els3Yt9vatL_VdU9OJER-4" edge="1">
          <mxGeometry y="36.14218009478673" width="50" height="58.29383886255924" as="geometry">
            <mxPoint x="169.5" y="141.07109004739337" as="sourcePoint" />
            <mxPoint x="170" y="176.04739336492892" as="targetPoint" />
            <Array as="points">
              <mxPoint x="170" y="152.72985781990522" />
            </Array>
          </mxGeometry>
        </mxCell>
        <mxCell id="Pc33jDkhrPaaxwca0irE-5" value="" style="endArrow=none;html=1;" parent="els3Yt9vatL_VdU9OJER-4" edge="1">
          <mxGeometry y="36.14218009478673" width="50" height="58.29383886255924" as="geometry">
            <mxPoint x="30" y="176.04739336492892" as="sourcePoint" />
            <mxPoint x="310" y="176.04739336492892" as="targetPoint" />
          </mxGeometry>
        </mxCell>
        <mxCell id="Pc33jDkhrPaaxwca0irE-6" value="" style="endArrow=classic;html=1;" parent="els3Yt9vatL_VdU9OJER-4" edge="1">
          <mxGeometry y="36.14218009478673" width="50" height="58.29383886255924" as="geometry">
            <mxPoint x="310" y="176.04739336492892" as="sourcePoint" />
            <mxPoint x="310.5" y="211.02369668246448" as="targetPoint" />
            <Array as="points">
              <mxPoint x="310.5" y="187.70616113744077" />
            </Array>
          </mxGeometry>
        </mxCell>
        <mxCell id="Pc33jDkhrPaaxwca0irE-7" value="" style="endArrow=classic;html=1;" parent="els3Yt9vatL_VdU9OJER-4" edge="1">
          <mxGeometry y="36.14218009478673" width="50" height="58.29383886255924" as="geometry">
            <mxPoint x="30" y="176.04739336492892" as="sourcePoint" />
            <mxPoint x="30.5" y="211.02369668246448" as="targetPoint" />
            <Array as="points">
              <mxPoint x="30.5" y="187.70616113744077" />
            </Array>
          </mxGeometry>
        </mxCell>
        <mxCell id="Pc33jDkhrPaaxwca0irE-8" value="" style="endArrow=classic;html=1;" parent="els3Yt9vatL_VdU9OJER-4" edge="1">
          <mxGeometry y="36.14218009478673" width="50" height="58.29383886255924" as="geometry">
            <mxPoint x="169.5" y="176.04739336492892" as="sourcePoint" />
            <mxPoint x="170" y="211.02369668246448" as="targetPoint" />
            <Array as="points">
              <mxPoint x="170" y="187.70616113744077" />
            </Array>
          </mxGeometry>
        </mxCell>
        <mxCell id="Pc33jDkhrPaaxwca0irE-9" value="" style="endArrow=classic;html=1;" parent="els3Yt9vatL_VdU9OJER-4" edge="1">
          <mxGeometry y="36.14218009478673" width="50" height="58.29383886255924" as="geometry">
            <mxPoint x="237" y="176.04739336492892" as="sourcePoint" />
            <mxPoint x="237.5" y="211.02369668246448" as="targetPoint" />
            <Array as="points">
              <mxPoint x="237.5" y="187.70616113744077" />
            </Array>
          </mxGeometry>
        </mxCell>
        <mxCell id="Pc33jDkhrPaaxwca0irE-10" value="" style="endArrow=classic;html=1;" parent="els3Yt9vatL_VdU9OJER-4" edge="1">
          <mxGeometry y="36.14218009478673" width="50" height="58.29383886255924" as="geometry">
            <mxPoint x="102" y="176.04739336492892" as="sourcePoint" />
            <mxPoint x="102.5" y="211.02369668246448" as="targetPoint" />
            <Array as="points">
              <mxPoint x="102.5" y="187.70616113744077" />
            </Array>
          </mxGeometry>
        </mxCell>
        <mxCell id="Pc33jDkhrPaaxwca0irE-11" value="Name" style="ellipse;whiteSpace=wrap;html=1;" parent="els3Yt9vatL_VdU9OJER-4" vertex="1">
          <mxGeometry y="211.02369668246448" width="60" height="34.976303317535546" as="geometry" />
        </mxCell>
        <mxCell id="Pc33jDkhrPaaxwca0irE-13" value="Email" style="ellipse;whiteSpace=wrap;html=1;" parent="els3Yt9vatL_VdU9OJER-4" vertex="1">
          <mxGeometry x="72" y="211.02369668246448" width="60" height="34.976303317535546" as="geometry" />
        </mxCell>
        <mxCell id="Pc33jDkhrPaaxwca0irE-14" value="Phone" style="ellipse;whiteSpace=wrap;html=1;" parent="els3Yt9vatL_VdU9OJER-4" vertex="1">
          <mxGeometry x="140" y="211.02369668246448" width="60" height="34.976303317535546" as="geometry" />
        </mxCell>
        <mxCell id="Pc33jDkhrPaaxwca0irE-15" value="Address" style="ellipse;whiteSpace=wrap;html=1;" parent="els3Yt9vatL_VdU9OJER-4" vertex="1">
          <mxGeometry x="209" y="211.02369668246448" width="60" height="34.976303317535546" as="geometry" />
        </mxCell>
        <mxCell id="Pc33jDkhrPaaxwca0irE-16" value="Password" style="ellipse;whiteSpace=wrap;html=1;" parent="els3Yt9vatL_VdU9OJER-4" vertex="1">
          <mxGeometry x="280" y="211.02369668246448" width="60" height="34.976303317535546" as="geometry" />
        </mxCell>
        <mxCell id="els3Yt9vatL_VdU9OJER-3" value="" style="html=1;verticalAlign=bottom;startArrow=circle;startFill=1;endArrow=open;startSize=6;endSize=8;" edge="1" parent="els3Yt9vatL_VdU9OJER-4">
          <mxGeometry width="80" relative="1" as="geometry">
            <mxPoint x="175" as="sourcePoint" />
            <mxPoint x="175" y="40.80568720379147" as="targetPoint" />
          </mxGeometry>
        </mxCell>
      </root>
    </mxGraphModel>
  </diagram>
</mxfile>
